<svg width="1920" height="1298" viewBox="0 0 1920 1298" fill="none" xmlns="http://www.w3.org/2000/svg">
<g opacity="0.7" clip-path="url(#clip0_1635_486)">
<g clip-path="url(#clip1_1635_486)">
<line y1="8.5" x2="1920" y2="8.5" stroke="#FFD45A" stroke-opacity="0.3" stroke-width="3"/>
<line y1="100.5" x2="1920" y2="100.5" stroke="#FFD45A" stroke-opacity="0.3" stroke-width="3"/>
<line y1="192.5" x2="1920" y2="192.5" stroke="#FFD45A" stroke-opacity="0.3" stroke-width="3"/>
<line y1="284.5" x2="1920" y2="284.5" stroke="#FFD45A" stroke-width="3"/>
<line y1="376.5" x2="1920" y2="376.5" stroke="#FFD45A" stroke-opacity="0.3" stroke-width="3"/>
<line y1="468.5" x2="1920" y2="468.5" stroke="#FFD45A" stroke-opacity="0.3" stroke-width="3"/>
<line y1="560.5" x2="1920" y2="560.5" stroke="#FFD45A" stroke-opacity="0.3" stroke-width="3"/>
<line y1="652.5" x2="1920" y2="652.5" stroke="#FFD45A" stroke-opacity="0.3" stroke-width="3"/>
<line y1="744.5" x2="1920" y2="744.5" stroke="#FFD45A" stroke-width="3"/>
<line y1="836.5" x2="1920" y2="836.5" stroke="#FFD45A" stroke-opacity="0.3" stroke-width="3"/>
<line y1="928.5" x2="1920" y2="928.5" stroke="#FFD45A" stroke-opacity="0.3" stroke-width="3"/>
<line y1="1020.5" x2="1920" y2="1020.5" stroke="#FFD45A" stroke-opacity="0.3" stroke-width="3"/>
<line y1="1112.5" x2="1920" y2="1112.5" stroke="#FFD45A" stroke-opacity="0.3" stroke-width="3"/>
<line y1="1204.5" x2="1920" y2="1204.5" stroke="#FFD45A" stroke-width="3"/>
<line y1="1296.5" x2="1920" y2="1296.5" stroke="#FFD45A" stroke-opacity="0.3" stroke-width="3"/>
</g>
<g clip-path="url(#clip2_1635_486)">
<line x1="8.5" y1="1298" x2="8.5" stroke="#FFD45A" stroke-opacity="0.3" stroke-width="3"/>
<line x1="99" y1="1298" x2="99" stroke="#FFD45A" stroke-opacity="0.3" stroke-width="3"/>
<line x1="189.5" y1="1298" x2="189.5" stroke="#FFD45A" stroke-opacity="0.3" stroke-width="3"/>
<line x1="280" y1="1298" x2="280" stroke="#FFD45A" stroke-width="3"/>
<line x1="370.5" y1="1298" x2="370.5" stroke="#FFD45A" stroke-opacity="0.3" stroke-width="3"/>
<line x1="461" y1="1298" x2="461" stroke="#FFD45A" stroke-opacity="0.3" stroke-width="3"/>
<line x1="551.5" y1="1298" x2="551.5" stroke="#FFD45A" stroke-opacity="0.3" stroke-width="3"/>
<line x1="642" y1="1298" x2="642" stroke="#FFD45A" stroke-opacity="0.3" stroke-width="3"/>
<line x1="732.5" y1="1298" x2="732.5" stroke="#FFD45A" stroke-width="3"/>
<line x1="823" y1="1298" x2="823" stroke="#FFD45A" stroke-opacity="0.3" stroke-width="3"/>
<line x1="913.5" y1="1298" x2="913.5" stroke="#FFD45A" stroke-opacity="0.3" stroke-width="3"/>
<line x1="1004" y1="1298" x2="1004" stroke="#FFD45A" stroke-opacity="0.3" stroke-width="3"/>
<line x1="1094.5" y1="1298" x2="1094.5" stroke="#FFD45A" stroke-opacity="0.3" stroke-width="3"/>
<line x1="1185" y1="1298" x2="1185" stroke="#FFD45A" stroke-width="3"/>
<line x1="1275.5" y1="1298" x2="1275.5" stroke="#FFD45A" stroke-opacity="0.3" stroke-width="3"/>
<line x1="1366" y1="1298" x2="1366" stroke="#FFD45A" stroke-opacity="0.3" stroke-width="3"/>
<line x1="1456.5" y1="1298" x2="1456.5" stroke="#FFD45A" stroke-opacity="0.3" stroke-width="3"/>
<line x1="1547" y1="1298" x2="1547" stroke="#FFD45A" stroke-opacity="0.3" stroke-width="3"/>
<line x1="1637.5" y1="1298" x2="1637.5" stroke="#FFD45A" stroke-width="3"/>
<line x1="1728" y1="1298" x2="1728" stroke="#FFD45A" stroke-opacity="0.3" stroke-width="3"/>
<line x1="1818.5" y1="1298" x2="1818.5" stroke="#FFD45A" stroke-opacity="0.3" stroke-width="3"/>
<line x1="1909" y1="1298" x2="1909" stroke="#FFD45A" stroke-opacity="0.3" stroke-width="3"/>
</g>
<line x1="1637.5" y1="303.5" x2="1637.5" y2="263.5" stroke="#FFBD00" stroke-width="5" stroke-linecap="round"/>
<line x1="1617.5" y1="284.5" x2="1657.5" y2="284.5" stroke="#FFBD00" stroke-width="5" stroke-linecap="round"/>
<line x1="732.5" y1="763.5" x2="732.5" y2="723.5" stroke="#FFBD00" stroke-width="5" stroke-linecap="round"/>
<line x1="712.5" y1="744.5" x2="752.5" y2="744.5" stroke="#FFBD00" stroke-width="5" stroke-linecap="round"/>
<line x1="1185.5" y1="763.5" x2="1185.5" y2="723.5" stroke="#FFBD00" stroke-width="5" stroke-linecap="round"/>
<line x1="1165.5" y1="744.5" x2="1205.5" y2="744.5" stroke="#FFBD00" stroke-width="5" stroke-linecap="round"/>
<line x1="280.5" y1="303.5" x2="280.5" y2="263.5" stroke="#FFBD00" stroke-width="5" stroke-linecap="round"/>
<line x1="260.5" y1="284.5" x2="300.5" y2="284.5" stroke="#FFBD00" stroke-width="5" stroke-linecap="round"/>
<rect y="826" width="1920" height="472" fill="url(#paint0_linear_1635_486)"/>
<rect y="923" width="1920" height="375" fill="url(#paint1_linear_1635_486)" fill-opacity="0.72"/>
</g>
<defs>
<linearGradient id="paint0_linear_1635_486" x1="960" y1="826" x2="960" y2="1298" gradientUnits="userSpaceOnUse">
<stop stop-color="white" stop-opacity="0"/>
<stop offset="1" stop-color="white"/>
</linearGradient>
<linearGradient id="paint1_linear_1635_486" x1="960" y1="923" x2="960" y2="1298" gradientUnits="userSpaceOnUse">
<stop stop-color="#FFE297" stop-opacity="0"/>
<stop offset="1" stop-color="#FFE297"/>
</linearGradient>
<clipPath id="clip0_1635_486">
<rect width="1920" height="1298" fill="white"/>
</clipPath>
<clipPath id="clip1_1635_486">
<rect width="1920" height="1298" fill="white"/>
</clipPath>
<clipPath id="clip2_1635_486">
<rect width="1298" height="1920" fill="white" transform="matrix(0 -1 1 0 0 1298)"/>
</clipPath>
</defs>
</svg>
