<svg width="127" height="136" viewBox="0 0 127 136" fill="none" xmlns="http://www.w3.org/2000/svg">
<g filter="url(#filter0_d_1754_1248)">
<path d="M71.6374 7.96259L25.0753 26.0104C13.7302 30.4078 8.09803 43.1697 12.4955 54.5148L30.5433 101.077C34.9407 112.422 47.7026 118.054 59.0476 113.657L105.61 95.6089C116.955 91.2115 122.587 78.4496 118.19 67.1046L100.142 20.5424C95.7444 9.19734 82.9825 3.56515 71.6374 7.96259Z" fill="url(#paint0_linear_1754_1248)"/>
<path d="M43.6282 54.2793C44.6204 54.2028 45.1331 54.2926 45.9685 54.6608C47.6006 55.3957 48.1208 55.9431 48.8141 57.7317C49.3334 59.0714 49.3794 59.3414 49.2509 60.1981C48.9855 61.8008 47.6638 63.6986 46.4393 64.2108C45.5756 64.5666 45.4622 64.1672 46.0259 62.7954C46.7842 60.9814 46.7736 60.4093 46.0082 58.4346C45.2539 56.5352 44.767 55.9748 43.6736 55.7825C42.7618 55.6167 41.9732 55.9607 41.0154 56.9653C38.536 59.6019 37.1212 65.7277 37.7606 71.1941C38.6203 78.4774 43.7009 82.604 48.3342 79.769C49.6845 78.9375 51.8835 76.4712 52.6447 74.9049C53.2806 73.6223 53.2737 73.6046 52.939 72.4465C52.2503 70.0183 52.9967 67.0376 54.7852 65.0941C55.608 64.1966 55.8421 64.0503 57.2125 63.5191C58.5164 63.0137 58.8434 62.9636 59.6144 63.0667C62.0856 63.4388 62.7107 66.2921 60.5211 67.1409C59.2506 67.6333 58.3441 67.2333 59.13 66.5275C59.9038 65.8428 59.08 64.718 57.9191 64.8419C56.5577 65.0029 55.4763 66.3846 55.2126 68.3329C54.8933 70.6882 55.7391 73.0157 57.1651 73.6727C58.5612 74.3435 59.4751 73.0298 59.5015 70.2658C59.5292 68.8522 59.9952 67.9203 60.8326 67.5957C61.5675 67.3108 61.8779 67.7104 62.0905 69.2067C62.4443 71.5115 62.9768 71.9392 64.0461 70.7764C64.4016 70.4064 64.9407 69.661 65.2448 69.1584L65.8107 68.1877L65.243 65.0792C64.5882 61.6025 64.6509 61.0762 65.7989 60.3645C66.9027 59.6842 67.3979 60.167 67.6806 62.1913L67.8481 63.3211L68.3745 62.0952C69.614 59.1908 71.7385 57.1757 72.9458 57.7085C73.5939 57.9945 73.7704 58.6009 73.9052 60.932C73.9713 62.0424 74.1383 63.7682 74.2828 64.7303C74.4999 66.1842 74.6052 66.5101 74.8587 66.662C75.6404 67.0893 77.0249 65.8013 77.9287 63.816L78.4578 62.6514L77.8396 60.7542C77.1092 58.5751 77.0107 57.7296 77.3135 56.8226C77.6031 55.98 78.3921 55.1369 78.9615 55.0688C79.5319 55.0032 79.7258 55.5036 79.8295 57.157C79.9604 59.4332 81.8371 64.0713 82.506 63.8121C82.7738 63.7083 83.5866 61.7402 83.9907 60.1988L84.297 59.0582L83.5723 58.726C82.2993 58.1224 81.8429 57.5885 81.2395 56.0319C80.7995 54.8966 80.7214 54.4452 80.7896 53.7816C80.923 52.7321 81.4118 51.8123 82.1839 51.2223C82.9924 50.5828 84.3114 50.6087 85.1028 51.2645C85.9029 51.9349 86.5248 53.8864 86.4282 55.4265L86.3634 56.5464L86.948 56.3198C87.7515 56.0084 87.9911 55.6863 88.905 53.7737C89.3788 52.7628 90.0086 51.8057 90.5425 51.2523C92.636 49.0584 95.8866 48.5085 97.0993 50.1543C98.0881 51.4646 97.5719 52.8563 95.9187 53.3619C94.7327 53.7254 94.3989 53.5077 94.8485 52.6827C95.6625 51.2101 93.9603 50.3912 92.4188 51.5259C91.5798 52.1411 90.9338 53.6013 90.8568 55.0369C90.698 57.9071 92.3992 60.5552 93.9865 59.9399C94.6221 59.6936 95.258 58.0037 95.2187 56.6154C95.1919 55.0089 95.9358 53.7024 96.8782 53.703C97.3948 53.6944 97.6031 54.1329 97.8705 55.6642C98.1551 57.3444 98.67 58.8181 99.1792 59.3894C99.3759 59.6002 99.8591 59.9531 100.267 60.1593C101.034 60.5543 101.136 60.7647 100.795 61.2254C100.636 61.4597 100.324 61.5046 99.4744 61.3916C98.3094 61.2646 97.1224 60.6855 96.4909 59.9498L96.1134 59.5205L95.6384 60.2802C95.3568 60.6974 94.8719 61.2317 94.5603 61.4667C93.3147 62.3725 91.2389 62.0824 89.816 60.7878C89.256 60.2911 88.4508 58.5084 88.4131 57.7152C88.397 57.2782 88.397 57.2782 87.9645 57.7539C87.7401 58.0144 87.2022 58.4138 86.7549 58.6458C86.017 59.0294 85.9318 59.1586 85.54 60.4255C84.9771 62.199 83.7602 64.7701 83.1237 65.4601C81.7761 66.9419 81.1339 66.9211 80.0296 65.367L79.2815 64.3308L78.808 65.2454C78.201 66.4049 76.7376 68.0879 75.7741 68.7311C74.8555 69.3366 73.6606 69.4331 72.967 68.9326C71.9284 68.1818 71.3223 65.9747 71.249 62.7129C71.1943 60.2922 70.6309 60.4729 69.4757 63.2477C68.626 65.3262 68.4294 66.6527 68.6837 68.4972C68.9463 70.4151 68.6894 71.245 67.6579 71.9529C67.0298 72.3699 66.5481 72.075 66.328 71.1039L66.1414 70.3279L65.6749 71.0106C65.0111 71.9787 64.0937 72.9888 63.3919 73.5102C62.6901 74.0317 61.564 74.2007 61.1446 73.8613C60.3958 73.2688 60.3958 73.2688 59.9076 74.0914C58.8641 75.9197 56.5537 76.4102 54.816 75.1993L54.2625 74.818L53.556 76.2655C51.5045 80.4073 48.0317 83.2531 44.7374 83.4908C40.5511 83.8076 37.2338 81.3982 35.472 76.7539C33.6857 72.0988 33.8431 66.4025 35.8993 61.4316C37.0652 58.6317 38.4378 56.7142 40.1363 55.5366C41.3588 54.6781 42.1872 54.3765 43.6282 54.2793Z" fill="white"/>
<path d="M82.1344 53.0323C81.9089 53.5419 82.6148 54.9619 83.4456 55.7174C83.868 56.1112 84.2676 56.3996 84.3512 56.3672C84.4178 56.3413 84.4187 55.8977 84.3542 55.3825C84.0988 53.4828 82.6262 51.9167 82.1344 53.0323Z" fill="url(#paint1_linear_1754_1248)"/>
</g>
<defs>
<filter id="filter0_d_1754_1248" x="-6.4668" y="0" width="132.619" height="141.619" filterUnits="userSpaceOnUse" color-interpolation-filters="sRGB">
<feFlood flood-opacity="0" result="BackgroundImageFix"/>
<feColorMatrix in="SourceAlpha" type="matrix" values="0 0 0 0 0 0 0 0 0 0 0 0 0 0 0 0 0 0 127 0" result="hardAlpha"/>
<feOffset dx="-6" dy="15"/>
<feGaussianBlur stdDeviation="2.5"/>
<feComposite in2="hardAlpha" operator="out"/>
<feColorMatrix type="matrix" values="0 0 0 0 0.168627 0 0 0 0 0.219608 0 0 0 0 0.298039 0 0 0 0.37 0"/>
<feBlend mode="normal" in2="BackgroundImageFix" result="effect1_dropShadow_1754_1248"/>
<feBlend mode="normal" in="SourceGraphic" in2="effect1_dropShadow_1754_1248" result="shape"/>
</filter>
<linearGradient id="paint0_linear_1754_1248" x1="8.42286" y1="44.0077" x2="122.262" y2="77.6116" gradientUnits="userSpaceOnUse">
<stop stop-color="#09BAD2"/>
<stop offset="1" stop-color="#6228FF"/>
</linearGradient>
<linearGradient id="paint1_linear_1754_1248" x1="77.2266" y1="47.43" x2="86.7415" y2="47.2872" gradientUnits="userSpaceOnUse">
<stop stop-color="#09BAD2"/>
<stop offset="1" stop-color="#6228FF"/>
</linearGradient>
</defs>
</svg>
