<svg width="153" height="157" viewBox="0 0 153 157" fill="none" xmlns="http://www.w3.org/2000/svg">
<g filter="url(#filter0_d_1754_1244)">
<path d="M119.238 11.1645L34.2067 2.22244C22.535 0.995021 12.0782 9.46177 10.8508 21.1335L2.24342 102.982C1.016 114.654 9.48275 125.111 21.1544 126.338L106.186 135.28C117.857 136.508 128.314 128.041 129.541 116.369L138.149 34.5204C139.376 22.8487 130.91 12.3919 119.238 11.1645Z" fill="#330000"/>
<path d="M66.927 80.971L47.2008 78.8965L41.8758 90.9422C41.7973 91.1638 41.6439 91.3512 41.442 91.4718C41.2402 91.5925 41.0025 91.6389 40.7701 91.6032L30.7787 90.5524C30.2092 90.4925 30.0429 90.1583 30.2798 89.5498L52.5318 42.1581C52.7564 41.6639 52.9885 41.0984 53.2281 40.4616C53.5717 39.3454 53.8078 38.1998 53.9334 37.0391C53.9303 36.9567 53.9465 36.8746 53.9806 36.7995C54.0147 36.7244 54.0658 36.6583 54.1299 36.6063C54.194 36.5544 54.2693 36.5181 54.3498 36.5003C54.4304 36.4825 54.514 36.4837 54.594 36.5038L68.1721 37.9317C68.5699 37.9735 68.7827 38.14 68.8104 38.4312L82.4476 95.1223C82.5584 95.7105 82.3577 95.9773 81.8456 95.9227L70.7438 94.7553C70.551 94.756 70.3645 94.6867 70.219 94.5603C70.0735 94.4338 69.979 94.2588 69.9529 94.0678L66.927 80.971ZM51.4064 68.4601L64.899 69.879L64.7733 69.2238L64.5702 68.1859L64.4242 67.4566L64.1896 66.3078L63.6883 63.8886L63.2492 61.7444L62.1105 56.1597C61.8269 54.7713 61.561 53.3794 61.3128 51.9843L61.1161 50.8526L60.8878 49.5149L60.5426 47.4424L60.4781 47.052L60.3931 47.0431C59.7501 49.0478 59.0163 51.0224 58.1941 52.9605L56.4985 56.9028L55.5646 59.0811L54.6212 61.2865C54.451 61.6849 54.2814 62.0787 54.1124 62.4678L53.6091 63.6205L53.1107 64.7455L52.6173 65.8419L52.1289 66.9102C51.9673 67.2619 51.8063 67.6086 51.646 67.9504L51.4064 68.4601ZM98.8155 50.3064C97.9409 50.2496 97.0881 50.009 96.3128 49.6002C95.5375 49.1913 94.8573 48.6235 94.3164 47.9338C93.7805 47.2169 93.3914 46.4012 93.1715 45.5335C92.9515 44.6658 92.9051 43.7632 93.0347 42.8776C93.0964 41.9937 93.3437 41.1328 93.7607 40.3511C94.1776 39.5693 94.7548 38.8843 95.4545 38.3407C96.804 37.293 98.5057 36.8061 100.205 36.9816L100.387 37.0028C102.437 37.2183 103.981 37.9994 105.019 39.3461C105.541 40.0442 105.921 40.8383 106.136 41.6831C106.35 42.528 106.396 43.4069 106.271 44.2695C106.213 45.1664 105.976 46.0425 105.572 46.8457C105.169 47.6489 104.608 48.3627 103.923 48.9446C103.236 49.4927 102.447 49.8978 101.601 50.1361C100.755 50.3743 99.8694 50.441 98.9973 50.332L98.8155 50.3064ZM88.0825 95.7149L92.3751 54.896C92.4287 54.3834 92.6834 54.1511 93.1392 54.1991L103.643 55.3037C104.098 55.3516 104.299 55.6318 104.246 56.1443L99.9531 96.9632C99.8931 97.5334 99.6354 97.7942 99.18 97.7457L88.7615 96.65C88.2761 96.599 88.0476 96.3165 88.0758 95.8027L88.0825 95.7149Z" fill="#FF9A00"/>
</g>
<defs>
<filter id="filter0_d_1754_1244" x="0" y="0" width="154.371" height="158.701" filterUnits="userSpaceOnUse" color-interpolation-filters="sRGB">
<feFlood flood-opacity="0" result="BackgroundImageFix"/>
<feColorMatrix in="SourceAlpha" type="matrix" values="0 0 0 0 0 0 0 0 0 0 0 0 0 0 0 0 0 0 127 0" result="hardAlpha"/>
<feOffset dx="9" dy="16"/>
<feGaussianBlur stdDeviation="2.5"/>
<feComposite in2="hardAlpha" operator="out"/>
<feColorMatrix type="matrix" values="0 0 0 0 0.168627 0 0 0 0 0.219608 0 0 0 0 0.298039 0 0 0 0.23 0"/>
<feBlend mode="normal" in2="BackgroundImageFix" result="effect1_dropShadow_1754_1244"/>
<feBlend mode="normal" in="SourceGraphic" in2="effect1_dropShadow_1754_1244" result="shape"/>
</filter>
</defs>
</svg>
