<svg width="91" height="91" viewBox="0 0 91 91" fill="none" xmlns="http://www.w3.org/2000/svg">
<path d="M51.0703 75.4111C63.9945 72.0802 73.5447 60.3231 73.5449 46.3311C73.5449 43.153 73.0497 40.0907 72.1367 37.2158L86.1553 23.167L66.8975 3.86719L52.9805 17.8145C50.0257 16.8373 46.8683 16.3067 43.5869 16.3066C29.1041 16.3066 17.021 26.6057 14.2334 40.2949L0.015625 90L51.0703 75.4111Z" fill="white"/>
<path d="M3.97461 88.8691L51.0703 75.4111C63.9944 72.0802 73.5446 60.323 73.5449 46.3311C73.5449 43.1531 73.0497 40.0906 72.1367 37.2158L86.1553 23.167L66.8975 3.86719L52.9805 17.8145C50.0257 16.8373 46.8683 16.3067 43.5869 16.3066C29.1041 16.3066 17.021 26.6057 14.2334 40.2949L1.14844 86.0391L0 87.1875L0.637695 87.8262L0.015625 90L2.19043 89.3789L2.82812 90.0156L3.97461 88.8691ZM37.1172 55.7266C38.3946 56.5046 39.8949 56.9531 41.5 56.9531C46.1598 56.9531 49.9373 53.1754 49.9375 48.5156C49.9375 43.8557 46.1599 40.0781 41.5 40.0781C36.8401 40.0781 33.0625 43.8557 33.0625 48.5156C33.0626 50.1207 33.5109 51.621 34.2891 52.8984L6.97559 80.2119L18.0791 41.3945L18.1221 41.2451L18.1533 41.0928C20.5704 29.2242 31.049 20.3066 43.5869 20.3066C46.4345 20.3067 49.1682 20.7669 51.7246 21.6123L54.0684 22.3877L55.8115 20.6396L66.8965 9.53027L80.5049 23.167L69.3057 34.3906L67.5889 36.1104L68.3242 38.4268C69.1149 40.9167 69.5449 43.571 69.5449 46.3311C69.5446 58.4596 61.2671 68.6528 50.0723 71.5381L50.0215 71.5508L49.9717 71.5654L9.79785 83.0459L37.1172 55.7266Z" fill="black"/>
</svg>
