<svg width="184" height="177" viewBox="0 0 184 177" fill="none" xmlns="http://www.w3.org/2000/svg">
<g filter="url(#filter0_d_1754_1255)">
<path d="M113.125 4.00231L22.5191 20.1052C10.0822 22.3156 1.79184 34.1896 4.00219 46.6265L19.5024 133.842C21.7128 146.279 33.5868 154.569 46.0237 152.359L136.63 136.256C149.067 134.045 157.357 122.171 155.147 109.734L139.647 22.5192C137.436 10.0823 125.562 1.79196 113.125 4.00231Z" fill="#001E36"/>
<path d="M47.0259 111.424L36.692 53.2779C36.6166 52.8537 36.7609 52.609 37.1251 52.544L37.7007 52.44L38.6833 52.2544L40.0466 51.9843L44.6127 51.0727L49.511 50.1082C51.234 49.771 52.9449 49.4513 54.6436 49.149C59.2534 48.3297 63.2383 48.216 66.5983 48.8079C69.6158 49.2641 72.4934 50.3882 75.0212 52.098C77.1715 53.5871 78.9731 55.5249 80.3018 57.7778C81.57 59.9746 82.4419 62.3773 82.8779 64.8761C83.7405 69.73 83.3297 73.9333 81.6453 77.486C79.9969 80.9529 77.3529 83.8502 74.0508 85.8081L73.767 85.9733C70.3172 88.0081 66.3142 89.2334 61.8323 90.0622L61.1354 90.1882L60.0996 90.3668L59.5764 90.4522L58.9922 90.5418L58.6389 90.5903L58.424 90.6171L57.8965 90.6911L57.2536 90.7917L56.288 90.9562L56.0733 90.9939L59.2998 109.148C59.3356 109.257 59.3455 109.372 59.329 109.485C59.3124 109.598 59.2697 109.706 59.2044 109.799C59.139 109.893 59.0527 109.97 58.9524 110.025C58.852 110.079 58.7404 110.109 58.6263 110.113L47.7927 112.039C47.3675 112.115 47.1119 111.91 47.0259 111.424ZM50.8101 61.3761L54.1806 80.3409C54.9792 80.262 55.7122 80.1631 56.3798 80.044L59.3831 79.5103C61.4523 79.1352 63.4561 78.4611 65.3313 77.5092L65.7047 77.3155C67.4127 76.4599 68.8385 75.131 69.812 73.4874C70.7132 71.9399 70.9745 69.9819 70.5958 67.6132L70.5515 67.3483C70.2863 65.5796 69.5198 63.9241 68.3421 62.5783C67.1272 61.2899 65.5446 60.4075 63.8099 60.0512C61.5486 59.6046 59.2204 59.6194 56.965 60.0947L55.8115 60.303L55.0846 60.4388L54.3915 60.5712L53.4147 60.7645L52.703 60.9118L52.334 60.9916L51.8416 61.1031L51.4234 61.2042L51.1857 61.2661L50.9811 61.3233L50.8913 61.3502L50.8101 61.3761ZM119.233 65.2222C117.501 64.6888 115.708 64.3753 113.898 64.289L113.48 64.2737C111.487 64.1747 109.489 64.2801 107.518 64.5882L107.026 64.6696C105.87 64.8429 104.744 65.1853 103.687 65.6856C103.008 65.9692 102.451 66.4837 102.114 67.1382C101.899 67.6524 101.837 68.2175 101.934 68.7662C102.046 69.2953 102.328 69.7728 102.739 70.1247C103.322 70.6036 103.987 70.9737 104.701 71.2173L104.917 71.2867C106.338 71.7546 107.786 72.1397 109.252 72.4402C112.487 72.9204 115.653 73.7921 118.678 75.0362C120.737 75.8757 122.556 77.2138 123.97 78.9303C125.194 80.5758 126.002 82.4933 126.324 84.519C126.852 87.176 126.555 89.9309 125.474 92.4148C124.295 94.9504 122.411 97.0934 120.047 98.5883C117.587 100.235 114.417 101.424 110.538 102.154L110.134 102.228C107.73 102.68 105.287 102.897 102.84 102.875L102.316 102.867C100.257 102.855 98.2074 102.589 96.2141 102.074C96.0117 102.011 95.8296 101.896 95.6864 101.74C95.5433 101.584 95.4441 101.392 95.3992 101.185L93.6366 91.2674C93.6086 91.1731 93.6067 91.0729 93.6311 90.9776C93.6556 90.8823 93.7055 90.7954 93.7754 90.7262C93.8456 90.6679 93.9319 90.6326 94.0228 90.6248C94.1136 90.6171 94.2047 90.6373 94.2837 90.6829C96.6889 91.5795 99.2191 92.0958 101.783 92.2131C104.053 92.3718 106.334 92.2658 108.58 91.8972C110.703 91.52 112.216 90.9693 113.12 90.2452C113.536 89.9576 113.859 89.556 114.05 89.0888C114.242 88.6216 114.295 88.1089 114.202 87.6125C114.062 86.8248 113.472 86.1474 112.432 85.5804C111.997 85.343 111.391 85.1082 110.614 84.8759L110.244 84.769L109.85 84.6625L109.644 84.6095L109.213 84.5035L108.989 84.4504L108.522 84.3454L108.279 84.2929L107.776 84.1882L107.515 84.1361L106.976 84.0314L106.412 83.9277C103.378 83.4419 100.424 82.5458 97.6314 81.2642C95.6328 80.3434 93.8775 78.9676 92.5058 77.247C91.2926 75.6128 90.4881 73.7119 90.1596 71.7033C89.726 69.2966 89.9676 66.8169 90.8574 64.5391C91.8859 62.0224 93.6194 59.8558 95.8505 58.3016C98.2821 56.4935 101.5 55.2331 105.504 54.5204C107.846 54.0848 110.218 53.8358 112.6 53.7759C114.316 53.6907 116.037 53.8429 117.712 54.2283C117.975 54.2558 118.21 54.4048 118.347 54.632C118.448 54.843 118.519 55.0671 118.559 55.2983L120.192 64.4887C120.244 64.7036 120.177 64.9304 120.017 65.083C119.906 65.1651 119.777 65.2204 119.641 65.2445C119.506 65.2687 119.366 65.261 119.233 65.2222Z" fill="#31A8FF"/>
</g>
<defs>
<filter id="filter0_d_1754_1255" x="0" y="0" width="187.187" height="180.573" filterUnits="userSpaceOnUse" color-interpolation-filters="sRGB">
<feFlood flood-opacity="0" result="BackgroundImageFix"/>
<feColorMatrix in="SourceAlpha" type="matrix" values="0 0 0 0 0 0 0 0 0 0 0 0 0 0 0 0 0 0 127 0" result="hardAlpha"/>
<feOffset dx="23" dy="19"/>
<feGaussianBlur stdDeviation="2.5"/>
<feComposite in2="hardAlpha" operator="out"/>
<feColorMatrix type="matrix" values="0 0 0 0 0.168627 0 0 0 0 0.219608 0 0 0 0 0.298039 0 0 0 0.3 0"/>
<feBlend mode="normal" in2="BackgroundImageFix" result="effect1_dropShadow_1754_1255"/>
<feBlend mode="normal" in="SourceGraphic" in2="effect1_dropShadow_1754_1255" result="shape"/>
</filter>
</defs>
</svg>
