<svg width="1277" height="526" viewBox="0 0 1277 526" fill="none" xmlns="http://www.w3.org/2000/svg">
<path d="M31.8 310.5V148.5C31.8 139.5 30.5 132.3 27.9 126.9C25.5 121.3 19.8 118.5 10.8 118.5H4.8V112.5H82.8C88 112.5 93.8 112.9 100.2 113.7C106.8 114.3 113.4 115.8 120 118.2C126.8 120.4 133 123.7 138.6 128.1C144.4 132.5 149 138.3 152.4 145.5C156 152.7 157.8 161.7 157.8 172.5C157.8 182.7 156.1 191.3 152.7 198.3C149.3 205.1 144.8 210.6 139.2 214.8C133.8 219 128.1 222.2 122.1 224.4C116.1 226.4 110.4 227.8 105 228.6C99.6 229.2 95.2 229.5 91.8 229.5H58.8V310.5H31.8ZM81.3 219C85.5 219 90.2 218.2 95.4 216.6C100.6 215 105.7 212.3 110.7 208.5C115.7 204.7 119.8 199.8 123 193.8C126.2 187.6 127.8 180 127.8 171C127.8 162 126.2 154.5 123 148.5C119.8 142.3 115.7 137.3 110.7 133.5C105.7 129.7 100.6 127 95.4 125.4C90.2 123.8 85.5 123 81.3 123C77.5 123 73.5 123.3 69.3 123.9C65.3 124.5 61.8 125.2 58.8 126V216C61.8 216.8 65.3 217.5 69.3 218.1C73.5 218.7 77.5 219 81.3 219ZM241.805 313.5C227.805 313.5 215.905 310.2 206.105 303.6C196.305 297 188.805 288.1 183.605 276.9C178.405 265.7 175.805 253.4 175.805 240C175.805 226.4 178.405 214.1 183.605 203.1C188.805 191.9 196.305 183 206.105 176.4C215.905 169.8 227.805 166.5 241.805 166.5C255.805 166.5 267.705 169.8 277.505 176.4C287.305 183 294.805 191.9 300.005 203.1C305.205 214.1 307.805 226.4 307.805 240C307.805 253.4 305.205 265.7 300.005 276.9C294.805 288.1 287.305 297 277.505 303.6C267.705 310.2 255.805 313.5 241.805 313.5ZM241.805 301.5C249.405 301.5 256.005 298.8 261.605 293.4C267.205 287.8 271.505 280.4 274.505 271.2C277.705 261.8 279.305 251.4 279.305 240C279.305 228.4 277.705 218 274.505 208.8C271.505 199.6 267.205 192.3 261.605 186.9C256.005 181.3 249.405 178.5 241.805 178.5C234.405 178.5 227.805 181.3 222.005 186.9C216.405 192.3 212.005 199.6 208.805 208.8C205.805 218 204.305 228.4 204.305 240C204.305 251.4 205.805 261.8 208.805 271.2C212.005 280.4 216.405 287.8 222.005 293.4C227.805 298.8 234.405 301.5 241.805 301.5ZM345.387 310.5V205.5C345.387 196.5 344.087 189.3 341.487 183.9C339.087 178.3 333.387 175.5 324.387 175.5H321.387V169.5H345.387C352.987 169.5 358.687 170.6 362.487 172.8C366.487 175 369.287 178.4 370.887 183H372.387C375.387 179.2 379.887 175.5 385.887 171.9C391.887 168.3 399.387 166.5 408.387 166.5C411.387 166.5 414.587 166.9 417.987 167.7C421.387 168.3 424.187 169.4 426.387 171C428.587 172.6 430.487 174.5 432.087 176.7C433.687 178.9 435.287 181.5 436.887 184.5L424.887 193.5C422.687 190.5 419.387 188.3 414.987 186.9C410.787 185.3 406.087 184.5 400.887 184.5C394.887 184.5 389.387 185.9 384.387 188.7C379.387 191.3 375.387 194.9 372.387 199.5V310.5H345.387ZM503.925 313.5C493.325 313.5 484.625 310.4 477.825 304.2C471.225 298 467.925 288.1 467.925 274.5V181.5H446.925V169.5H467.925V142.5L482.925 124.5H494.925V169.5H530.925V181.5H494.925V274.5C494.925 292.5 501.925 301.5 515.925 301.5C521.125 301.5 525.425 300.9 528.825 299.7C532.225 298.5 535.425 297.1 538.425 295.5L541.425 301.5C538.225 303.9 533.825 306.5 528.225 309.3C522.625 312.1 514.525 313.5 503.925 313.5Z" fill="#2B384C"/>
<g filter="url(#filter0_d_1635_566)">
<path d="M553.5 495.5C536.167 495.5 523.833 491.333 516.5 483C509.167 474.667 505.5 465.667 505.5 456C505.5 450 506.833 444.333 509.5 439C511.833 433.667 515.167 429.833 519.5 427.5C522.833 425.833 525.833 425 528.5 425C532.167 425 535.5 426.167 538.5 428.5C541.5 430.833 543 434 543 438C543 439 543 439.833 543 440.5C542.667 441.5 542.333 442.5 542 443.5C540 445.167 538.167 447.667 536.5 451C534.5 454.333 533.167 457.667 532.5 461C532.167 461.667 532 462.5 532 463.5C532 464.5 532 465.333 532 466C532 470.333 533.333 474 536 477C538.667 480 541.667 481.5 545 481.5C553.667 481.5 562 478.333 570 472C578 465.667 585.333 457.667 592 448C599 438.667 605.167 429.167 610.5 419.5C615.833 409.833 620.167 401.5 623.5 394.5C638.833 363.5 653.333 331.167 667 297.5C681 263.833 694.167 231 706.5 199H692.5C686.5 199 680.167 200 673.5 202C667.167 204 662.167 208.333 658.5 215C653.167 225.333 647.333 236.333 641 248C635 259.667 628.167 271.333 620.5 283C619.167 285.333 618 286.5 617 286.5C615.333 286.5 614.5 284 614.5 279C614.5 273 615.5 268 617.5 264C622.5 255.667 627.333 246.5 632 236.5C637 226.167 641.5 216.333 645.5 207C649.5 197.667 652.5 190 654.5 184C656.167 179.333 657.833 176.167 659.5 174.5C661.5 172.833 665.5 172.333 671.5 173L715.5 176.5C719.5 165.833 723.333 155.5 727 145.5C731 135.167 734.833 125.333 738.5 116C746.167 96.6667 755 78.1667 765 60.5C775 42.8333 787.333 28.5 802 17.5C817 6.16665 835.167 0.499978 856.5 0.499978C868.833 0.166649 879.333 1.99999 888 6C896.667 9.99999 903 17.5 907 28.5C908 31.5 908.5 35 908.5 39C908.5 45.6666 906.833 52.5 903.5 59.5C900.167 66.5 895.667 71.3333 890 74C888.333 75 886.5 75.6667 884.5 76C882.5 76.3333 880.667 76.5 879 76.5C874.667 76.5 870.833 75.3333 867.5 73C864.167 70.6667 862.5 67.3333 862.5 63C862.5 61 863 58.8333 864 56.5C870 52.1667 874.167 46 876.5 38C876.833 36.6667 877 35.5 877 34.5C877.333 33.5 877.5 32.5 877.5 31.5C877.5 24.8333 875 20 870 17C868 15.3333 865.833 14.3333 863.5 14C861.167 13.3333 858.833 13 856.5 13C845.5 13 835.667 18.1667 827 28.5C816.333 40.8333 806.5 56 797.5 74C788.833 92 781 110.333 774 129C767.333 147.667 761.333 164.167 756 178.5C769.667 178.5 782.833 178.333 795.5 178C808.5 177.333 819.667 176.5 829 175.5C838.333 174.167 844 172.833 846 171.5C843.667 177.833 839.667 182.833 834 186.5C828.667 190.167 820.5 192.833 809.5 194.5C801.833 195.833 792.667 196.833 782 197.5C771.333 197.833 760.333 198.167 749 198.5L734.5 240.5C729.833 253.833 724.167 269.333 717.5 287C711.167 304.667 703.833 323.167 695.5 342.5C687.167 361.5 677.833 380 667.5 398C657.5 416 646.5 432.333 634.5 447C622.833 462 610.167 473.833 596.5 482.5C583.167 491.167 568.833 495.5 553.5 495.5Z" fill="#FFC700"/>
</g>
<path d="M891.5 313.5C877.5 313.5 865.6 310.2 855.8 303.6C846 297 838.5 288.1 833.3 276.9C828.1 265.7 825.5 253.4 825.5 240C825.5 226.4 828.1 214.1 833.3 203.1C838.5 191.9 846 183 855.8 176.4C865.6 169.8 877.5 166.5 891.5 166.5C905.5 166.5 917.4 169.8 927.2 176.4C937 183 944.5 191.9 949.7 203.1C954.9 214.1 957.5 226.4 957.5 240C957.5 253.4 954.9 265.7 949.7 276.9C944.5 288.1 937 297 927.2 303.6C917.4 310.2 905.5 313.5 891.5 313.5ZM891.5 301.5C899.1 301.5 905.7 298.8 911.3 293.4C916.9 287.8 921.2 280.4 924.2 271.2C927.4 261.8 929 251.4 929 240C929 228.4 927.4 218 924.2 208.8C921.2 199.6 916.9 192.3 911.3 186.9C905.7 181.3 899.1 178.5 891.5 178.5C884.1 178.5 877.5 181.3 871.7 186.9C866.1 192.3 861.7 199.6 858.5 208.8C855.5 218 854 228.4 854 240C854 251.4 855.5 261.8 858.5 271.2C861.7 280.4 866.1 287.8 871.7 293.4C877.5 298.8 884.1 301.5 891.5 301.5ZM993.882 310.5V148.5C993.882 139.5 992.582 132.3 989.982 126.9C987.582 121.3 981.882 118.5 972.882 118.5H966.882V112.5H993.882C1000.88 112.5 1006.28 113.4 1010.08 115.2C1014.08 117 1016.88 120.5 1018.48 125.7C1020.08 130.9 1020.88 138.5 1020.88 148.5V310.5H993.882ZM1081.24 151.5C1076.64 151.5 1072.64 149.6 1069.24 145.8C1066.04 142 1064.44 137.5 1064.44 132.3C1064.44 128.1 1065.64 124.8 1068.04 122.4C1070.64 120 1074.04 118.8 1078.24 118.8C1082.84 118.8 1086.74 120.7 1089.94 124.5C1093.34 128.3 1095.04 132.8 1095.04 138C1095.04 142.2 1093.74 145.5 1091.14 147.9C1088.74 150.3 1085.44 151.5 1081.24 151.5ZM1069.84 310.5V205.5C1069.84 196.5 1068.54 189.3 1065.94 183.9C1063.54 178.3 1057.84 175.5 1048.84 175.5H1042.84V169.5H1069.84C1076.84 169.5 1082.24 170.4 1086.04 172.2C1090.04 174 1092.84 177.5 1094.44 182.7C1096.04 187.9 1096.84 195.5 1096.84 205.5V310.5H1069.84ZM1197.07 313.5C1183.07 313.5 1171.17 310.2 1161.37 303.6C1151.57 297 1144.07 288.1 1138.87 276.9C1133.67 265.7 1131.07 253.4 1131.07 240C1131.07 226.4 1133.67 214.1 1138.87 203.1C1144.07 191.9 1151.57 183 1161.37 176.4C1171.17 169.8 1183.07 166.5 1197.07 166.5C1211.07 166.5 1222.97 169.8 1232.77 176.4C1242.57 183 1250.07 191.9 1255.27 203.1C1260.47 214.1 1263.07 226.4 1263.07 240C1263.07 253.4 1260.47 265.7 1255.27 276.9C1250.07 288.1 1242.57 297 1232.77 303.6C1222.97 310.2 1211.07 313.5 1197.07 313.5ZM1197.07 301.5C1204.67 301.5 1211.27 298.8 1216.87 293.4C1222.47 287.8 1226.77 280.4 1229.77 271.2C1232.97 261.8 1234.57 251.4 1234.57 240C1234.57 228.4 1232.97 218 1229.77 208.8C1226.77 199.6 1222.47 192.3 1216.87 186.9C1211.27 181.3 1204.67 178.5 1197.07 178.5C1189.67 178.5 1183.07 181.3 1177.27 186.9C1171.67 192.3 1167.27 199.6 1164.07 208.8C1161.07 218 1159.57 228.4 1159.57 240C1159.57 251.4 1161.07 261.8 1164.07 271.2C1167.27 280.4 1171.67 287.8 1177.27 293.4C1183.07 298.8 1189.67 301.5 1197.07 301.5Z" fill="#2B384C"/>
<defs>
<filter id="filter0_d_1635_566" x="500.5" y="0" width="413" height="525.5" filterUnits="userSpaceOnUse" color-interpolation-filters="sRGB">
<feFlood flood-opacity="0" result="BackgroundImageFix"/>
<feColorMatrix in="SourceAlpha" type="matrix" values="0 0 0 0 0 0 0 0 0 0 0 0 0 0 0 0 0 0 127 0" result="hardAlpha"/>
<feOffset dy="25"/>
<feGaussianBlur stdDeviation="2.5"/>
<feComposite in2="hardAlpha" operator="out"/>
<feColorMatrix type="matrix" values="0 0 0 0 0.168627 0 0 0 0 0.219608 0 0 0 0 0.298039 0 0 0 0.52 0"/>
<feBlend mode="normal" in2="BackgroundImageFix" result="effect1_dropShadow_1635_566"/>
<feBlend mode="normal" in="SourceGraphic" in2="effect1_dropShadow_1635_566" result="shape"/>
</filter>
</defs>
</svg>
