<svg width="383" height="146" viewBox="0 0 383 146" fill="none" xmlns="http://www.w3.org/2000/svg">
<g opacity="0.7" filter="url(#filter0_f_1635_554)">
<rect x="30" y="32" width="343" height="104" rx="15" fill="#87909D"/>
</g>
<rect x="13" y="13" width="338" height="102" fill="white"/>
<rect x="13" y="13" width="338" height="102" stroke="#132238" stroke-width="4"/>
<rect x="340" y="103" width="22" height="22" fill="white" stroke="#132238" stroke-width="4"/>
<rect x="2" y="104" width="22" height="22" fill="white" stroke="#132238" stroke-width="4"/>
<rect x="340" y="2" width="22" height="22" fill="white" stroke="#132238" stroke-width="4"/>
<rect x="2" y="2" width="22" height="22" fill="white" stroke="#132238" stroke-width="4"/>
<path d="M57.2537 81.6C54.3537 81.6 51.8537 81.1333 49.7537 80.2C47.6537 79.2667 46.037 77.8 44.9037 75.8C43.8037 73.7667 43.2537 71.1667 43.2537 68V46.7H48.0037V68.5C48.0037 71.5 48.8037 73.75 50.4037 75.25C52.037 76.75 54.3204 77.5 57.2537 77.5C60.2204 77.5 62.537 76.75 64.2037 75.25C65.8704 73.75 66.7037 71.5 66.7037 68.5V46.7H71.4037V68C71.4037 71.1667 70.837 73.7667 69.7037 75.8C68.5704 77.8 66.937 79.2667 64.8037 80.2C62.7037 81.1333 60.187 81.6 57.2537 81.6ZM78.426 81V46.7H83.176V81H78.426ZM85.9561 83.45L97.1061 44.25H100.656L89.5061 83.45H85.9561ZM117.353 81.6C114.453 81.6 111.953 81.1333 109.853 80.2C107.753 79.2667 106.137 77.8 105.003 75.8C103.903 73.7667 103.353 71.1667 103.353 68V46.7H108.103V68.5C108.103 71.5 108.903 73.75 110.503 75.25C112.137 76.75 114.42 77.5 117.353 77.5C120.32 77.5 122.637 76.75 124.303 75.25C125.97 73.75 126.803 71.5 126.803 68.5V46.7H131.503V68C131.503 71.1667 130.937 73.7667 129.803 75.8C128.67 77.8 127.037 79.2667 124.903 80.2C122.803 81.1333 120.287 81.6 117.353 81.6ZM134.776 81L148.176 63L136.026 46.7H141.876L151.226 59.45H151.476L160.726 46.7H166.276L154.276 62.95L167.676 81H161.826L151.226 66.55H150.976L140.426 81H134.776ZM179.959 81V46.7H192.759C196.359 46.7 199.426 47.3 201.959 48.5C204.493 49.7 206.426 51.5667 207.759 54.1C209.126 56.6 209.809 59.85 209.809 63.85C209.809 67.7833 209.126 71.0167 207.759 73.55C206.426 76.0833 204.493 77.9667 201.959 79.2C199.426 80.4 196.359 81 192.759 81H179.959ZM184.709 76.9H192.659C194.559 76.9 196.259 76.6667 197.759 76.2C199.259 75.7 200.543 74.95 201.609 73.95C202.676 72.95 203.476 71.6667 204.009 70.1C204.576 68.5 204.859 66.6 204.859 64.4V63.4C204.859 61.1333 204.576 59.2167 204.009 57.65C203.476 56.05 202.676 54.75 201.609 53.75C200.576 52.75 199.309 52.0167 197.809 51.55C196.309 51.05 194.593 50.8 192.659 50.8H184.709V76.9ZM224.828 81.6C222.228 81.6 220.028 81.1167 218.228 80.15C216.461 79.15 215.111 77.6333 214.178 75.6C213.278 73.5667 212.828 70.9833 212.828 67.85C212.828 64.6833 213.278 62.1 214.178 60.1C215.111 58.0667 216.478 56.5667 218.278 55.6C220.078 54.6 222.328 54.1 225.028 54.1C227.495 54.1 229.561 54.5833 231.228 55.55C232.895 56.4833 234.145 57.9 234.978 59.8C235.845 61.6667 236.278 64.0167 236.278 66.85V68.95H217.378C217.445 71.05 217.745 72.7833 218.278 74.15C218.845 75.4833 219.678 76.4667 220.778 77.1C221.878 77.7 223.261 78 224.928 78C226.061 78 227.045 77.8667 227.878 77.6C228.745 77.3 229.461 76.8833 230.028 76.35C230.628 75.8167 231.078 75.1833 231.378 74.45C231.678 73.7167 231.845 72.9167 231.878 72.05H236.178C236.145 73.45 235.878 74.75 235.378 75.95C234.878 77.1167 234.145 78.1167 233.178 78.95C232.211 79.7833 231.028 80.4333 229.628 80.9C228.228 81.3667 226.628 81.6 224.828 81.6ZM217.478 65.65H231.728C231.728 64.1833 231.561 62.95 231.228 61.95C230.895 60.95 230.411 60.1333 229.778 59.5C229.178 58.8667 228.461 58.4167 227.628 58.15C226.828 57.85 225.911 57.7 224.878 57.7C223.345 57.7 222.045 57.9833 220.978 58.55C219.911 59.1167 219.095 59.9833 218.528 61.15C217.961 62.3167 217.611 63.8167 217.478 65.65ZM249.421 81.6C247.621 81.6 246.037 81.4167 244.671 81.05C243.304 80.6833 242.171 80.15 241.271 79.45C240.371 78.75 239.687 77.9167 239.221 76.95C238.754 75.9833 238.521 74.8833 238.521 73.65C238.521 73.4833 238.521 73.3333 238.521 73.2C238.521 73.0333 238.537 72.9 238.571 72.8H242.921C242.887 72.9333 242.871 73.05 242.871 73.15C242.871 73.25 242.871 73.35 242.871 73.45C242.904 74.6167 243.204 75.5333 243.771 76.2C244.371 76.8667 245.187 77.3333 246.221 77.6C247.254 77.8667 248.404 78 249.671 78C250.771 78 251.787 77.8667 252.721 77.6C253.654 77.3 254.387 76.8667 254.921 76.3C255.487 75.7 255.771 74.95 255.771 74.05C255.771 72.95 255.404 72.1167 254.671 71.55C253.971 70.95 253.037 70.4833 251.871 70.15C250.704 69.8167 249.487 69.4667 248.221 69.1C247.154 68.8 246.087 68.4667 245.021 68.1C243.954 67.7333 242.987 67.2833 242.121 66.75C241.287 66.2167 240.604 65.5333 240.071 64.7C239.571 63.8333 239.321 62.75 239.321 61.45C239.321 60.2833 239.554 59.25 240.021 58.35C240.521 57.45 241.221 56.6833 242.121 56.05C243.021 55.4167 244.104 54.95 245.371 54.65C246.671 54.3167 248.104 54.15 249.671 54.15C251.337 54.15 252.787 54.3333 254.021 54.7C255.287 55.0667 256.337 55.5833 257.171 56.25C258.004 56.9167 258.621 57.6833 259.021 58.55C259.421 59.3833 259.621 60.2833 259.621 61.25C259.621 61.45 259.621 61.65 259.621 61.85C259.621 62.0167 259.604 62.15 259.571 62.25H255.271V61.7C255.271 61.0333 255.087 60.4 254.721 59.8C254.387 59.1667 253.787 58.6667 252.921 58.3C252.087 57.9 250.921 57.7 249.421 57.7C248.454 57.7 247.621 57.7833 246.921 57.95C246.221 58.0833 245.637 58.3167 245.171 58.65C244.704 58.95 244.354 59.3167 244.121 59.75C243.887 60.15 243.771 60.6167 243.771 61.15C243.771 62.0167 244.054 62.6833 244.621 63.15C245.187 63.6167 245.937 64 246.871 64.3C247.837 64.6 248.871 64.9333 249.971 65.3C251.137 65.6333 252.321 65.9833 253.521 66.35C254.754 66.6833 255.871 67.1167 256.871 67.65C257.904 68.1833 258.721 68.9167 259.321 69.85C259.954 70.75 260.271 71.95 260.271 73.45C260.271 74.85 260.004 76.0667 259.471 77.1C258.937 78.1333 258.171 78.9833 257.171 79.65C256.204 80.3167 255.054 80.8 253.721 81.1C252.421 81.4333 250.987 81.6 249.421 81.6ZM264.209 49.75V44.85H268.609V49.75H264.209ZM264.209 81V54.7H268.609V81H264.209ZM278.389 90.1C277.123 90.1 275.956 89.8333 274.889 89.3C273.823 88.8 272.973 88.0667 272.339 87.1C271.706 86.1333 271.389 84.9833 271.389 83.65C271.389 82.1833 271.789 80.9667 272.589 80C273.423 79.0333 274.406 78.3167 275.539 77.85C274.706 77.45 274.056 76.9 273.589 76.2C273.123 75.4667 272.889 74.6667 272.889 73.8C272.889 72.6333 273.306 71.65 274.139 70.85C275.006 70.05 276.056 69.5167 277.289 69.25C276.156 68.5167 275.256 67.5833 274.589 66.45C273.956 65.2833 273.639 64 273.639 62.6C273.639 60.9333 274.023 59.4667 274.789 58.2C275.589 56.9333 276.789 55.9333 278.389 55.2C280.023 54.4667 282.006 54.1 284.339 54.1C285.406 54.1 286.406 54.1833 287.339 54.35C288.273 54.4833 289.106 54.7167 289.839 55.05C291.006 54.5167 291.873 53.8333 292.439 53C293.039 52.1667 293.406 51.3167 293.539 50.45H297.889C297.889 51.45 297.656 52.4 297.189 53.3C296.756 54.1667 296.156 54.9 295.389 55.5C294.623 56.0667 293.689 56.45 292.589 56.65C293.423 57.45 294.039 58.35 294.439 59.35C294.873 60.35 295.089 61.4333 295.089 62.6C295.089 64.2667 294.689 65.75 293.889 67.05C293.123 68.3167 291.956 69.3167 290.389 70.05C288.823 70.7833 286.856 71.15 284.489 71.15H280.389C279.489 71.15 278.756 71.3333 278.189 71.7C277.623 72.0333 277.339 72.5833 277.339 73.35C277.339 74.0167 277.623 74.5667 278.189 75C278.756 75.4 279.489 75.6 280.389 75.6H291.089C293.023 75.6 294.606 76.25 295.839 77.55C297.073 78.8167 297.689 80.45 297.689 82.45C297.689 83.8833 297.323 85.1667 296.589 86.3C295.889 87.4667 294.889 88.3833 293.589 89.05C292.323 89.75 290.839 90.1 289.139 90.1H278.389ZM279.639 86.75H289.089C289.856 86.75 290.556 86.5833 291.189 86.25C291.823 85.95 292.323 85.5167 292.689 84.95C293.056 84.3833 293.239 83.7667 293.239 83.1C293.239 81.9667 292.906 81.0667 292.239 80.4C291.573 79.7333 290.739 79.4 289.739 79.4H279.639C278.573 79.4 277.673 79.7667 276.939 80.5C276.206 81.2 275.839 82.0667 275.839 83.1C275.839 84.2 276.206 85.0833 276.939 85.75C277.673 86.4167 278.573 86.75 279.639 86.75ZM284.389 67.85C286.523 67.85 288.106 67.3833 289.139 66.45C290.173 65.5167 290.689 64.2333 290.689 62.6C290.689 61 290.173 59.7333 289.139 58.8C288.106 57.8667 286.523 57.4 284.389 57.4C282.256 57.4 280.656 57.8667 279.589 58.8C278.556 59.7333 278.039 61 278.039 62.6C278.039 63.6333 278.273 64.55 278.739 65.35C279.206 66.15 279.906 66.7667 280.839 67.2C281.773 67.6333 282.956 67.85 284.389 67.85ZM300.222 81V54.7H303.772L304.172 58.65H304.522C305.222 57.5833 306.006 56.7167 306.872 56.05C307.772 55.3833 308.756 54.9 309.822 54.6C310.922 54.2667 312.089 54.1 313.322 54.1C314.989 54.1 316.439 54.3833 317.672 54.95C318.939 55.5167 319.922 56.4333 320.622 57.7C321.356 58.9667 321.722 60.6833 321.722 62.85V81H317.322V63.45C317.322 62.35 317.172 61.45 316.872 60.75C316.606 60.05 316.222 59.5 315.722 59.1C315.256 58.7 314.672 58.4167 313.972 58.25C313.306 58.0833 312.556 58 311.722 58C310.489 58 309.322 58.3 308.222 58.9C307.122 59.5 306.239 60.3667 305.572 61.5C304.939 62.6333 304.622 63.9833 304.622 65.55V81H300.222Z" fill="#2B384C"/>
<defs>
<filter id="filter0_f_1635_554" x="20.2" y="22.2" width="362.6" height="123.6" filterUnits="userSpaceOnUse" color-interpolation-filters="sRGB">
<feFlood flood-opacity="0" result="BackgroundImageFix"/>
<feBlend mode="normal" in="SourceGraphic" in2="BackgroundImageFix" result="shape"/>
<feGaussianBlur stdDeviation="4.9" result="effect1_foregroundBlur_1635_554"/>
</filter>
</defs>
</svg>
